# xmcd
#
# Track frame offsets:
#	183
#	16355
#	39805
#
# Disc length: 924 seconds
#
# Revision: 0
# Processed by: cddbd v1.5.1PL0 Copyright (c) Steve Scherf et al.
# Submitted via: dBpowerAMP V4.0
#
DISCID=15039a03
DTITLE=Truce - Eyes Don't Lie (Single)
DYEAR=1998
DGENRE=R&B
TTITLE0=Eye's Don't Lie
TTITLE1=Key To The World Feat. Damage
TTITLE2=Eye's Don't Lie (Colout System Inc Classic Vocal)
EXTD=
EXTT0=
EXTT1=
EXTT2=
PLAYORDER=
